<svg
            xmlns="http://www.w3.org/2000/svg"
            xmlnsXlink="http://www.w3.org/1999/xlink"
            viewBox="0 0 1000 1000"
            width="30"
            height="30"
            preserveAspectRatio="xMidYMid meet"
            style={{
              width: '15%',
              height: '15%',
              transform: 'translate3d(0px, 0px, 0px)',
              contentVisibility: 'visible',
            }}
            id="Tinder"
          >
            <defs>
              <clipPath id="__lottie_element_3">
                <rect width="1000" height="1000" x="0" y="0" />
              </clipPath>
              <linearGradient
                id="__lottie_element_9"
                spreadMethod="pad"
                gradientUnits="userSpaceOnUse"
                x1="-542.2219848632812"
                y1="485.77801513671875"
                x2="553.3330078125"
                y2="-471.1109924316406"
              >
                <stop offset="0%" stopColor="rgb(251,38,124)" />
                <stop offset="50%" stopColor="rgb(252,79,103)" />
                <stop offset="100%" stopColor="rgb(253,119,82)" />
              </linearGradient>
            </defs>
            <g clipPath="url(#__lottie_element_3)">
              <g
                transform="matrix(0.6000000238418579,0,0,0.6000000238418579,305.8999938964844,311.8999938964844)"
                opacity="1"
                style={{ display: 'block' }}
              >
                <g opacity="1" transform="matrix(1,0,0,1,353.5,323.5)">
                  <path
                    fill="url(#__lottie_element_9)"
                    fillOpacity="1"
                    d="M467,-287 C467,-287 467,287 467,287 C467,386.3420104980469 386.3420104980469,467 287,467 C287,467 -287,467 -287,467 C-386.3420104980469,467 -467,386.3420104980469 -467,287 C-467,287 -467,-287 -467,-287 C-467,-386.3420104980469 -386.3420104980469,-467 -287,-467 C-287,-467 287,-467 287,-467 C386.3420104980469,-467 467,-386.3420104980469 467,-287z"
                  />
                  <path
                    strokeLinecap="butt"
                    strokeLinejoin="miter"
                    fillOpacity="0"
                    strokeMiterlimit="4"
                    stroke="rgb(149,86,237)"
                    strokeOpacity="1"
                    strokeWidth="0"
                    d="M467,-287 C467,-287 467,287 467,287 C467,386.3420104980469 386.3420104980469,467 287,467 C287,467 -287,467 -287,467 C-386.3420104980469,467 -467,386.3420104980469 -467,287 C-467,287 -467,-287 -467,-287 C-467,-386.3420104980469 -386.3420104980469,-467 -287,-467 C-287,-467 287,-467 287,-467 C386.3420104980469,-467 467,-386.3420104980469 467,-287z"
                  />
                </g>
              </g>
              <g
                transform="matrix(39,0,0,39,512.8190307617188,521.911376953125)"
                opacity="1"
                style={{ display: 'block' }}
              >
                <g opacity="1" transform="matrix(1,0,0,1,0,0)">
                  <path
                    fill="rgb(255,255,255)"
                    fillOpacity="1"
                    d="M-1.5670000314712524,-0.8830000162124634 C0.1770000010728836,-1.4839999675750732 0.4740000069141388,-3.049999952316284 0.25099998712539673,-4.488999843597412 C0.25099998712539673,-4.540999889373779 0.29600000381469727,-4.578000068664551 0.3400000035762787,-4.563000202178955 C2.009000062942505,-3.746999979019165 3.88700008392334,-1.965999960899353 3.88700008392334,0.7049999833106995 C3.88700008392334,2.753000020980835 2.2990000247955322,4.563000202178955 -0.008999999612569809,4.563000202178955 C-2.055999994277954,4.656000137329102 -3.7899999618530273,3.072000026702881 -3.882999897003174,1.024999976158142 C-3.944000005722046,-0.3310000002384186 -3.260999917984009,-1.6109999418258667 -2.1010000705718994,-2.315000057220459 C-2.056999921798706,-2.3450000286102295 -1.996999979019165,-2.315000057220459 -1.996999979019165,-2.263000011444092 C-1.975000023841858,-1.9880000352859497 -1.899999976158142,-1.2979999780654907 -1.5959999561309814,-0.8830000162124634 C-1.5959999561309814,-0.8830000162124634 -1.5670000314712524,-0.8830000162124634 -1.5670000314712524,-0.8830000162124634z"
                  />
                </g>
              </g>
            </g>
          </svg>